<svg xmlns="http://www.w3.org/2000/svg" width="26.772" height="23.785" viewBox="0 0 26.772 23.785"><defs><style>.a{fill:#303030;stroke:#fff;stroke-width:0.3px;}</style></defs><path class="a" d="M-464.188,701.437a27.776,27.776,0,0,1-.9,2.72A22.139,22.139,0,0,1-469.3,710.1a53.786,53.786,0,0,1-7.306,6.475,1.074,1.074,0,0,1-1.471.088,47.335,47.335,0,0,1-9.716-9.3,14.387,14.387,0,0,1-2.637-5.174,7.208,7.208,0,0,1,7.908-8.689,7.391,7.391,0,0,1,4.807,2.346c.094.1.187.2.278.3.469-.413.892-.847,1.376-1.2,4.431-3.273,10.889-.8,11.786,4.5a1.543,1.543,0,0,0,.091.255Zm-13.3,13.266c.14-.084.2-.11.244-.146a49.756,49.756,0,0,0,7.161-6.619,18.249,18.249,0,0,0,3.367-5.11,5.384,5.384,0,0,0,.207-3.885A5.286,5.286,0,0,0-471,695.477a5.312,5.312,0,0,0-5.378,2.869,1.123,1.123,0,0,1-1.03.751,1.125,1.125,0,0,1-1.029-.753,5.346,5.346,0,0,0-5.522-2.857,5.2,5.2,0,0,0-4.586,5.661,9.271,9.271,0,0,0,1.28,3.363,29.968,29.968,0,0,0,5.626,6.589C-480.292,712.344-478.868,713.511-477.489,714.7Z" transform="translate(490.809 -693.263)"/></svg>