<svg xmlns="http://www.w3.org/2000/svg" width="166.088" height="104.053" viewBox="0 0 166.088 104.053"><defs><style>.a{fill:#9d8b61;}.b{fill:#4c0b36;}</style></defs><g transform="translate(770.613 -497.698)"><path class="a" d="M-760.22,760.181c-2.182,1.414-3.812,1.538-3.812,4.95,0,1.168.214,3.045,1.938,3.045a2.087,2.087,0,0,0,1.874-2.276Zm0-2.092c0-1.936,0-4-2.275-4a2.549,2.549,0,0,0-2.553,2.49,2.009,2.009,0,0,0,1.077,1.784,2.584,2.584,0,0,1-2.736,2.583,2.721,2.721,0,0,1-2.891-2.891c0-3.75,5.135-4.243,7.964-4.243,3.5,0,7.133,1.137,7.133,4.7v7.1c0,1.014,0,2.766,1.414,2.766a2.215,2.215,0,0,0,1.354-.491l.123.155a8.355,8.355,0,0,1-5.381,2.335c-1.753,0-2.921-1.322-3.2-3.382a6.034,6.034,0,0,1-5.689,3.382c-2.889,0-4.735-1.384-4.735-4.029,0-4.859,6.919-4.027,10.393-6.425Z" transform="translate(0 -185.175)"/><path class="a" d="M-691.891,749.465v-.217c1.63,0,1.662-.827,1.662-3.289v-7.533c0-1.26-.155-2.921-1.939-2.921a4.5,4.5,0,0,0-2.706,1.2v9.254c0,1.938.031,3.289,1.693,3.289v.217h-10.057v-.217c2.4,0,2.675-.613,2.675-3.9V730.031c0-2.06-.429-2.892-3.043-2.276l-.062-.214,8.856-2.37-.091,11.256c3.043-2.491,4.92-3.323,6.8-3.323,2.491,0,3.567,1.385,3.567,4.521v7.718c0,3.29.278,3.9,2.677,3.9v.217Z" transform="translate(-48.401 -164.465)"/><path class="a" d="M-613.338,757.937c0-2.061-.03-3.167-2.3-2.829l-.032-.216,8.027-1.077v12.453c0,2.06.183,3.229,2.675,2.737l.031.216a21.8,21.8,0,0,1-5.627,1.168c-2.275,0-2.769-1.2-2.676-3.351-3.045,2.581-4.98,3.351-6.856,3.351-2.492,0-3.568-1.384-3.568-4.519v-7.934c0-2.061-.093-3.107-2.921-2.737l-.032-.216,8.642-1.168v11.255c0,1.26.153,2.921,1.937,2.921a4.5,4.5,0,0,0,2.7-1.2Z" transform="translate(-104.107 -185.175)"/><path class="a" d="M-545.087,728.462a3.333,3.333,0,0,1-3.322,3.352,3.352,3.352,0,0,1-3.319-3.352,3.32,3.32,0,0,1,3.319-3.291,3.281,3.281,0,0,1,3.322,3.291m-6.3,27.92c-2.03,0-4.736-.767-4.736-3.413a3.006,3.006,0,0,1,3.169-3.136,2.819,2.819,0,0,1,3.014,2.829,2.032,2.032,0,0,0-1.415,1.876,1.205,1.205,0,0,0,1.26,1.352c1.445,0,2.243-1.292,2.243-2.737a4.608,4.608,0,0,0-3.381-4.613V737.964c0-2.061-.431-2.89-3.045-2.275l-.062-.216,8.8-2.367v15.374c0,3.692-1.106,7.9-5.844,7.9" transform="translate(-155.075 -164.465)"/><path class="a" d="M-496.658,760.181c-2.184,1.414-3.814,1.538-3.814,4.95,0,1.168.216,3.045,1.939,3.045a2.087,2.087,0,0,0,1.875-2.276Zm0-2.092c0-1.936,0-4-2.277-4a2.547,2.547,0,0,0-2.552,2.49,2.009,2.009,0,0,0,1.077,1.784,2.586,2.586,0,0,1-2.737,2.583,2.721,2.721,0,0,1-2.89-2.891c0-3.75,5.136-4.243,7.963-4.243,3.508,0,7.136,1.137,7.136,4.7v7.1c0,1.014,0,2.766,1.414,2.766a2.217,2.217,0,0,0,1.355-.491l.123.155a8.361,8.361,0,0,1-5.381,2.335c-1.753,0-2.923-1.322-3.2-3.382a6.029,6.029,0,0,1-5.687,3.382c-2.892,0-4.736-1.384-4.736-4.029,0-4.859,6.919-4.027,10.394-6.425Z" transform="translate(-190.557 -185.175)"/><path class="a" d="M-435.667,763.776h.214a7.228,7.228,0,0,0,7.352,6.365c1.967,0,3.382-.952,3.382-2.152,0-3.352-10.948-2.984-10.948-9.04,0-3.784,4.305-5.137,7.5-5.137a13.035,13.035,0,0,1,3.782.584l2.03-.552.309,5.412h-.218c-.369-3.721-3.782-5.2-6.026-5.2-1.784,0-2.984.953-2.984,2.122,0,3.5,10.733,2.583,10.733,8.639,0,3.322-3.259,5.568-7.563,5.568a22.884,22.884,0,0,1-4.953-.646l-2.274.584Z" transform="translate(-242.169 -185.173)"/><path class="a" d="M-363.871,762.119c0-3.506,0-8.057-2.707-8.057-2.676,0-2.676,4.551-2.676,8.057,0,3.6,0,8.025,2.676,8.025,2.707,0,2.707-4.427,2.707-8.025m6.241,0c0,4.766-3.906,8.271-8.949,8.271-5.012,0-8.917-3.5-8.917-8.271,0-4.8,3.905-8.3,8.917-8.3,5.043,0,8.949,3.5,8.949,8.3" transform="translate(-285.674 -185.175)"/><path class="a" d="M-296.993,770.172v-.217c1.63,0,1.66-.827,1.66-3.289v-7.533c0-1.261-.153-2.921-1.936-2.921a4.5,4.5,0,0,0-2.707,1.2v9.254c0,1.938.031,3.289,1.692,3.289v.217h-10.054v-.217c2.4,0,2.674-.613,2.674-3.9v-7.381c0-2.061-.43-2.89-3.043-2.274l-.061-.215,8.856-2.369-.094,3.323c3.045-2.491,4.92-3.323,6.8-3.323,2.491,0,3.566,1.385,3.566,4.521v7.718c0,3.29.278,3.9,2.675,3.9v.217Z" transform="translate(-333.917 -185.173)"/><path class="a" d="M-225.621,763.776h.215a7.226,7.226,0,0,0,7.35,6.365c1.967,0,3.382-.952,3.382-2.152,0-3.352-10.947-2.984-10.947-9.04,0-3.784,4.3-5.137,7.5-5.137a13.031,13.031,0,0,1,3.782.584l2.03-.552.307,5.412h-.216c-.369-3.721-3.782-5.2-6.027-5.2-1.784,0-2.983.953-2.983,2.122,0,3.5,10.733,2.583,10.733,8.639,0,3.322-3.26,5.568-7.564,5.568a22.863,22.863,0,0,1-4.951-.646l-2.275.584Z" transform="translate(-394.034 -185.173)"/><path class="a" d="M-485.482,582.05c-3,1.824-3.094-1.894-3.094-1.894v-9.4c-.05-3.206-3.459-4.688-5.151-4.907a21.633,21.633,0,0,0-7.523.107c-3.288.666-5.343,3.343-4.4,5.8s4.28,2.189,5.246,1.264a2.765,2.765,0,0,0,.8-2.2,2.827,2.827,0,0,1-1.016-3.152c.646-2.01,5.375-2.752,5.56.617v4.452a36.875,36.875,0,0,1-5.089,1.978c-2.358.66-6.084,1.445-6.849,4.371-.793,3.025,2.094,6.546,6.5,5.655,3.874-.786,5.194-3.124,5.486-3.752.27,1.972,1.8,4.37,5.046,3.637a10.392,10.392,0,0,0,4.6-2.473s.059-.058.053-.108c-.008-.081-.167.013-.167.013m-9.859-1.086c-.563.789-1.755,2.026-3.126.916-1.907-1.545-1.176-6.174.444-7.172,1.484-.916,2.963-1.734,2.963-1.734v7.441c0,.048.006.1.009.146-.1.142-.258.357-.291.4" transform="translate(-190.501 -49.067)"/><path class="b" d="M-473.243,662.114a1.955,1.955,0,0,0-.343-1.045,1.953,1.953,0,0,0-.341,1.046c-.18-.261-.43-.255-.719-.239.279.27.356.842.685,1.11a.6.6,0,0,0,.318.144l.058,0a.569.569,0,0,0,.059,0,.615.615,0,0,0,.319-.146c.325-.267.4-.84.68-1.11-.287-.016-.538-.021-.717.239" transform="translate(-213.987 -118.119)"/><path class="b" d="M-531.078,624.886a1.051,1.051,0,0,0-.651.083,7.65,7.65,0,0,1-.687.368,2.173,2.173,0,0,1-.341.092,1.431,1.431,0,0,1-.944-.15,1.67,1.67,0,0,0,1.843.713,1.616,1.616,0,0,0-.262.87,1.681,1.681,0,0,0,.12.784,3.055,3.055,0,0,0,.3.514,1.644,1.644,0,0,1,.415-1.349c.251-.327.628-.525.76-.943a.8.8,0,0,0-.547-.982" transform="translate(-171.289 -91.942)"/><path class="b" d="M-568.878,606.676c-.369-.09-.72-.517-1.13-.582a.605.605,0,0,0-.337.033l-.05.024a.452.452,0,0,0-.045.031.539.539,0,0,0-.192.266c-.135.369.093.868,0,1.218.246-.122.457-.235.475-.529a1.943,1.943,0,0,0,.812.688,1.794,1.794,0,0,0-.248-1.007.692.692,0,0,0,.718-.142" transform="translate(-144.556 -78.364)"/><path class="b" d="M-508.892,525.246a.941.941,0,0,0,.576-.961,1.322,1.322,0,0,0,.708.75,1.037,1.037,0,0,0,.406-.933,1.16,1.16,0,0,0,.907.725s.005,0,.007,0a1.318,1.318,0,0,0-1.325-1.406,1.155,1.155,0,0,0-.307.03,1.353,1.353,0,0,0-.715.4,1.277,1.277,0,0,0-.26,1.386.022.022,0,0,0,0,.01" transform="translate(-189.149 -18.598)"/><path class="b" d="M-558.94,643.139a1.363,1.363,0,0,0-.461.527,1.006,1.006,0,0,0-.1.446.951.951,0,0,0,.088.377.846.846,0,0,0,.123.182.957.957,0,0,0,.492.314,1.3,1.3,0,0,0,.629-.032,1.286,1.286,0,0,0,.492-.287l.035-.033a2.136,2.136,0,0,0,.623-1.04,2.71,2.71,0,0,0,.075-.694,2.475,2.475,0,0,0-.078-.573c-.442.629-1.338.421-1.922.815" transform="translate(-152.638 -104.566)"/><path class="b" d="M-513.193,663.449a.838.838,0,0,1-.4-.18,1.326,1.326,0,0,1-.48.127,1.637,1.637,0,0,1,.016.531,1.241,1.241,0,0,0,.585.192,1.357,1.357,0,0,0,1.3-.7,1.462,1.462,0,0,1-1.017.034" transform="translate(-185.481 -119.709)"/><path class="b" d="M-517.823,659.62a1.622,1.622,0,0,0,1.052-.137,1.338,1.338,0,0,0,.719-.61,1.024,1.024,0,0,1-1.061-.254c-.458-.39-1.187-.543-1.391.025a.624.624,0,0,0,.064.554.947.947,0,0,0,.617.422" transform="translate(-182.249 -116.095)"/><path class="b" d="M-518.862,660.956a.952.952,0,0,1-.7-.732.751.751,0,0,1,0-.255.738.738,0,0,0-.164.247.843.843,0,0,0,.06.731,4.676,4.676,0,0,0,.668.882.794.794,0,0,1,.206.543,1.49,1.49,0,0,0,.383-.537,1.578,1.578,0,0,0,.07-.818,2.647,2.647,0,0,1-.524-.062" transform="translate(-181.354 -117.323)"/><path class="b" d="M-559.441,593.943a1.36,1.36,0,0,0,1.3-.7,1.466,1.466,0,0,1-1.017.034.827.827,0,0,1-.4-.179,1.316,1.316,0,0,1-.48.125,1.638,1.638,0,0,1,.016.532,1.239,1.239,0,0,0,.586.191" transform="translate(-152.244 -68.972)"/><path class="b" d="M-563.841,589.359a1.617,1.617,0,0,0,1.052-.12,1.366,1.366,0,0,0,.718-.626,1.027,1.027,0,0,1-1.061-.254c-.458-.391-1.187-.543-1.391.024a.625.625,0,0,0,.064.554.944.944,0,0,0,.617.422" transform="translate(-148.978 -65.296)"/><path class="b" d="M-564.832,590.78a.954.954,0,0,1-.7-.732.772.772,0,0,1,0-.255.75.75,0,0,0-.164.247.839.839,0,0,0,.061.731,4.668,4.668,0,0,0,.667.883.793.793,0,0,1,.205.542,1.486,1.486,0,0,0,.383-.537,1.574,1.574,0,0,0,.069-.818,2.649,2.649,0,0,1-.524-.062" transform="translate(-148.117 -66.586)"/><path class="b" d="M-493.793,500.785a1.326,1.326,0,0,1,.483-.119,1.633,1.633,0,0,1-.01-.532,1.25,1.25,0,0,0-.583-.2,1.361,1.361,0,0,0-1.3.687,1.47,1.47,0,0,1,1.018-.021.836.836,0,0,1,.4.185" transform="translate(-199.12 -1.612)"/><path class="b" d="M-491.212,503.179a1.63,1.63,0,0,0-1.054.122,1.351,1.351,0,0,0-.727.6,1.029,1.029,0,0,1,1.058.269c.454.4,1.179.56,1.391-.005a.627.627,0,0,0-.057-.556.947.947,0,0,0-.611-.429" transform="translate(-200.722 -3.934)"/><path class="b" d="M-487.247,498.244a.794.794,0,0,1-.2-.546,1.482,1.482,0,0,0-.39.531,1.573,1.573,0,0,0-.08.816,2.652,2.652,0,0,1,.523.069.956.956,0,0,1,.692.742.764.764,0,0,1-.008.255.783.783,0,0,0,.168-.244.847.847,0,0,0-.051-.733,4.638,4.638,0,0,0-.656-.89" transform="translate(-204.378 0)"/><path class="b" d="M-505.227,547.859a1.631,1.631,0,0,0,.23-.879,1.7,1.7,0,0,0-.15-.778,3.044,3.044,0,0,0-.313-.5,1.642,1.642,0,0,1-.366,1.364c-.239.335-.607.547-.723.97a.8.8,0,0,0,.583.961,1.057,1.057,0,0,0,.647-.107,7.556,7.556,0,0,1,.674-.394,2.147,2.147,0,0,1,.337-.105,1.438,1.438,0,0,1,.95.115,1.67,1.67,0,0,0-1.868-.644" transform="translate(-190.902 -34.706)"/><path class="b" d="M-417.218,625.429a2.178,2.178,0,0,1-.341-.092,7.668,7.668,0,0,1-.688-.368,1.051,1.051,0,0,0-.651-.083.8.8,0,0,0-.547.982c.132.418.507.616.759.942a1.645,1.645,0,0,1,.416,1.349,3.049,3.049,0,0,0,.294-.513,1.682,1.682,0,0,0,.121-.784,1.615,1.615,0,0,0-.262-.87,1.67,1.67,0,0,0,1.842-.713,1.433,1.433,0,0,1-.944.15" transform="translate(-253.874 -91.942)"/><path class="b" d="M-375.675,606.448a.536.536,0,0,0-.191-.266l-.047-.031c-.017-.01-.033-.016-.05-.024a.611.611,0,0,0-.337-.033c-.409.066-.761.492-1.129.582a.69.69,0,0,0,.717.141,1.8,1.8,0,0,0-.248,1.007,1.95,1.95,0,0,0,.814-.689c.016.295.229.407.474.529-.1-.35.133-.849,0-1.218" transform="translate(-284.275 -78.364)"/><path class="b" d="M-442.4,524.828a1.158,1.158,0,0,0,.908-.725,1.039,1.039,0,0,0,.406.933,1.318,1.318,0,0,0,.707-.751.942.942,0,0,0,.577.961.026.026,0,0,0,0-.01,1.279,1.279,0,0,0-.26-1.386,1.359,1.359,0,0,0-.716-.4,1.165,1.165,0,0,0-.308-.03,1.317,1.317,0,0,0-1.323,1.406s0,0,.007,0" transform="translate(-237.291 -18.598)"/><path class="b" d="M-389.348,643.139c-.585-.394-1.48-.186-1.923-.815a2.486,2.486,0,0,0-.078.573,2.717,2.717,0,0,0,.075.694,2.139,2.139,0,0,0,.622,1.04l.036.033a1.282,1.282,0,0,0,.493.287,1.3,1.3,0,0,0,.628.032.958.958,0,0,0,.492-.314.81.81,0,0,0,.122-.182.951.951,0,0,0,.088-.377,1,1,0,0,0-.1-.446,1.362,1.362,0,0,0-.461-.527" transform="translate(-274.211 -104.566)"/><path class="b" d="M-432.974,663.269a.818.818,0,0,1-.4.18,1.463,1.463,0,0,1-1.017-.034,1.358,1.358,0,0,0,1.3.7,1.238,1.238,0,0,0,.586-.192,1.64,1.64,0,0,1,.017-.531,1.332,1.332,0,0,1-.481-.127" transform="translate(-243.091 -119.709)"/><path class="b" d="M-431.338,659.483a1.62,1.62,0,0,0,1.052.137.946.946,0,0,0,.617-.422.626.626,0,0,0,.064-.554c-.2-.568-.932-.415-1.39-.025a1.025,1.025,0,0,1-1.061.255,1.338,1.338,0,0,0,.719.609" transform="translate(-244.779 -116.095)"/><path class="b" d="M-425.884,659.97a.785.785,0,0,1,0,.255.955.955,0,0,1-.7.732,2.661,2.661,0,0,1-.525.062,1.577,1.577,0,0,0,.069.818,1.494,1.494,0,0,0,.384.537.793.793,0,0,1,.2-.543,4.673,4.673,0,0,0,.667-.883.844.844,0,0,0,.061-.731.749.749,0,0,0-.165-.247" transform="translate(-248.341 -117.324)"/><path class="b" d="M-387,593.093a.829.829,0,0,1-.4.179,1.47,1.47,0,0,1-1.018-.034,1.36,1.36,0,0,0,1.3.7,1.234,1.234,0,0,0,.586-.192,1.618,1.618,0,0,1,.016-.531,1.318,1.318,0,0,1-.48-.126" transform="translate(-276.328 -68.971)"/><path class="b" d="M-385.322,589.239a1.618,1.618,0,0,0,1.052.12.947.947,0,0,0,.617-.422.627.627,0,0,0,.064-.555c-.2-.567-.932-.415-1.39-.024a1.028,1.028,0,0,1-1.062.254,1.374,1.374,0,0,0,.719.626" transform="translate(-278.049 -65.296)"/><path class="b" d="M-379.811,590.771a.84.84,0,0,0,.061-.731.758.758,0,0,0-.165-.247.764.764,0,0,1,.005.255.954.954,0,0,1-.7.732,2.649,2.649,0,0,1-.525.062,1.581,1.581,0,0,0,.07.818,1.488,1.488,0,0,0,.383.537.792.792,0,0,1,.206-.542,4.742,4.742,0,0,0,.666-.883" transform="translate(-281.577 -66.586)"/><path class="b" d="M-452.66,499.934a1.245,1.245,0,0,0-.583.2,1.635,1.635,0,0,1-.009.532,1.327,1.327,0,0,1,.482.119.836.836,0,0,1,.4-.185,1.473,1.473,0,0,1,1.018.021,1.363,1.363,0,0,0-1.305-.687" transform="translate(-229.455 -1.612)"/><path class="b" d="M-455.846,503.3a1.629,1.629,0,0,0-1.053-.122.943.943,0,0,0-.611.429.627.627,0,0,0-.057.556c.212.565.938.4,1.391.005a1.029,1.029,0,0,1,1.058-.269,1.347,1.347,0,0,0-.728-.6" transform="translate(-226.306 -3.934)"/><path class="b" d="M-458.715,499.857a.956.956,0,0,1,.693-.742,2.657,2.657,0,0,1,.523-.069,1.567,1.567,0,0,0-.081-.816,1.474,1.474,0,0,0-.39-.531.79.79,0,0,1-.2.545,4.641,4.641,0,0,0-.656.89.846.846,0,0,0-.051.733.755.755,0,0,0,.168.245.762.762,0,0,1-.009-.255" transform="translate(-225.345 -0.001)"/><path class="b" d="M-444.182,547.064a1.647,1.647,0,0,1-.365-1.364,2.982,2.982,0,0,0-.314.5,1.693,1.693,0,0,0-.15.779,1.615,1.615,0,0,0,.229.879,1.67,1.67,0,0,0-1.868.644,1.438,1.438,0,0,1,.949-.115,2.264,2.264,0,0,1,.337.1,7.561,7.561,0,0,1,.673.394,1.062,1.062,0,0,0,.648.107.8.8,0,0,0,.583-.961c-.116-.423-.485-.635-.724-.97" transform="translate(-234.229 -34.706)"/><path class="a" d="M-480.587,655.2a1.7,1.7,0,0,0-.091,1.181c.1.273.5.758.836.724a.942.942,0,0,1,1.364.175l.069.153.029-.192a1.62,1.62,0,0,0-.029-.343,1.5,1.5,0,0,0-.942-.951c-.393-.132-1.1-.289-1.237-.746" transform="translate(-209.574 -113.873)"/><path class="a" d="M-469.415,656.881a1.428,1.428,0,0,0-.027.342l.029.194.067-.154a.942.942,0,0,1,1.364-.176c.337.032.732-.454.834-.727a1.7,1.7,0,0,0-.093-1.179c-.137.456-.844.613-1.235.748a1.489,1.489,0,0,0-.939.953" transform="translate(-217.749 -113.861)"/><path class="a" d="M-473.22,654.254a1.416,1.416,0,0,1,.27-.443,1.4,1.4,0,0,1,.269.442,1,1,0,0,1,.255-.678,1.213,1.213,0,0,0,.041-1.518c-.4-.53-.56-.725-.568-.737-.01.012-.165.207-.569.738a1.219,1.219,0,0,0,.045,1.52,1,1,0,0,1,.257.677" transform="translate(-214.623 -111.07)"/><path class="a" d="M-468.335,662.967c.219-.009.376.2.558.3a1.22,1.22,0,0,0,.563.108,1.156,1.156,0,0,0,1.015-.748.52.52,0,0,1-.664.027c-.246-.157-.445-.394-.695-.544-.388-.237-1.079-.254-1.184.3a.793.793,0,0,1,.787.133c-.33.03-.382.431-.382.431" transform="translate(-218.256 -118.754)"/><path class="a" d="M-479.531,662.41c-.106-.553-.8-.535-1.185-.3-.248.151-.447.388-.692.547a.52.52,0,0,1-.663-.025,1.155,1.155,0,0,0,1.016.746,1.209,1.209,0,0,0,.563-.11c.183-.09.339-.307.558-.3,0,0-.053-.4-.384-.43a.8.8,0,0,1,.788-.134" transform="translate(-208.618 -118.76)"/><path class="a" d="M-531.326,557.709a3.94,3.94,0,0,1,2.423-.27c.464-.2.9-.358,1.4-.549a22.023,22.023,0,0,0,3.238-1.435.92.92,0,0,1-.362-.815,22.347,22.347,0,0,1-3.2,1.4,15.636,15.636,0,0,0-3.5,1.672" transform="translate(-173.006 -41.169)"/><path class="a" d="M-585.8,609.438a5.624,5.624,0,0,1-2.3-.1l-.032-.007a3.919,3.919,0,0,1-3.355-3.285,3.018,3.018,0,0,1,1.661-3.168,2.919,2.919,0,0,1,3.322.539.676.676,0,0,1,.191-.46.588.588,0,0,1,.478-.145,3.9,3.9,0,0,0-4.371-.763,3.936,3.936,0,0,0-2.191,4.061,4.822,4.822,0,0,0,4.079,4.115,7.17,7.17,0,0,0,1.432.193,2.834,2.834,0,0,1,1.091-.979" transform="translate(-128.836 -75.186)"/><path class="a" d="M-562.822,609.461a1.622,1.622,0,0,0-.522-1c-.223-.173-.8-.382-1.061-.2a.9.9,0,0,1-1.219.495l-.133-.092.073.169a1.513,1.513,0,0,0,.2.264,1.52,1.52,0,0,0,1.262.332c.394-.075,1.057-.278,1.4.03" transform="translate(-148.112 -79.888)"/><path class="a" d="M-571.489,611.721a1.385,1.385,0,0,0-.15-.291l-.122-.142.022.156a.888.888,0,0,1-1.041.777c-.3.131-.378.709-.324.978a1.647,1.647,0,0,0,.674.913c-.118-.434.388-.891.645-1.182a1.332,1.332,0,0,0,.3-1.21" transform="translate(-142.789 -82.127)"/><path class="a" d="M-566.247,613.4c.6.24.83.327.846.331,0-.014.031-.244.1-.862a1.177,1.177,0,0,0-.807-1.211,1,1,0,0,1-.555-.429,1.272,1.272,0,0,1,0,.484,1.421,1.421,0,0,1-.448-.232.919.919,0,0,1,.132.668,1.16,1.16,0,0,0,.735,1.251" transform="translate(-147.131 -82.085)"/><path class="a" d="M-575.335,610.325c-.178.109-.417.008-.613.02a1.19,1.19,0,0,0-.521.173,1.038,1.038,0,0,0-.464,1.08c.042-.239.319-.339.537-.33.284.013.57.111.853.117.441.012,1.022-.3.83-.794a.773.773,0,0,1-.72.26c.258-.179.1-.527.1-.527" transform="translate(-140.02 -81.43)"/><path class="a" d="M-565.433,605.132c.366.4.931.062,1.133-.312.128-.238.174-.522.3-.765a.5.5,0,0,1,.564-.29,1.165,1.165,0,0,0-1.221-.13,1.124,1.124,0,0,0-.412.35c-.1.159-.125.407-.311.5,0,0,.246.3.535.169a.731.731,0,0,1-.584.476" transform="translate(-148.347 -76.508)"/><path class="a" d="M-505.91,527.981a1.065,1.065,0,0,1-.813-.456,1.146,1.146,0,0,1-.48.685,1.417,1.417,0,0,1-.651-.487,1.063,1.063,0,0,1-.623.646,2.839,2.839,0,0,0,2.2,2.057,3.117,3.117,0,0,1,.147-1.147,2.186,2.186,0,0,0,.221-1.3" transform="translate(-189.527 -21.564)"/><path class="a" d="M-519.016,513.307c.7-.4.528-1.178.635-1.784a4.87,4.87,0,0,1,.875-2.2,5.179,5.179,0,0,1,2.934-1.8c.126-.019.244-.032.333-.037A4.2,4.2,0,0,1-511,508.54a4.762,4.762,0,0,1,1.408,3.2,5,5,0,0,1-1.912,4.075,6.953,6.953,0,0,0,1.065-3.343,3.829,3.829,0,0,0-.986-2.838,3.065,3.065,0,0,0-2.256-1.008,3.146,3.146,0,0,0-2.75,1.8,1.508,1.508,0,0,1,1.1-.081,2.211,2.211,0,0,1,1.646-.807,2.144,2.144,0,0,1,1.587.717,2.894,2.894,0,0,1,.745,2.15c-.146,2-1.023,3.513-3.1,5.152a1.873,1.873,0,0,1-.245.2,2.5,2.5,0,0,1-.122.855,1.8,1.8,0,0,1,.846.054l.12-.065c2.313-1.338,4.4-3,5.007-5.22l.008,0c.76-2.166.526-6.165-.9-7.883a2.5,2.5,0,0,1-.6.715,6.446,6.446,0,0,1,.935,2.913,5.021,5.021,0,0,0-.969-1.25,5.077,5.077,0,0,0-3.909-1.3,4.654,4.654,0,0,0-.691.093,6.1,6.1,0,0,0-1.929.185,3.053,3.053,0,0,0-1.089.522c-.418.341-.637.82-.162,1.221a2.653,2.653,0,0,0-.837.251,1.428,1.428,0,0,0-.831,1.191,2.894,2.894,0,0,0,.6,1.6c.233.408.432.958-.127,1.192a.4.4,0,0,0-.1-.6.531.531,0,0,0-.782.349c-.156.679.688,1.04,1.227.731" transform="translate(-181.006 -5.637)"/><path class="a" d="M-569.2,573.5a1.49,1.49,0,0,1,.5-.767,3.041,3.041,0,0,1-.811-2.058,2.969,2.969,0,0,1,2.966-2.965h0a2.955,2.955,0,0,1,3.193,2.576,7.418,7.418,0,0,1,.281-1.573,3.5,3.5,0,0,0-3.475-1.915,3.884,3.884,0,0,0-3.879,3.878A3.9,3.9,0,0,0-569.2,573.5" transform="translate(-144.744 -49.961)"/><path class="a" d="M-562.993,618.585a1.542,1.542,0,0,1,1.008.33,1.644,1.644,0,0,1,.178-.652,1.764,1.764,0,0,1-.144-.331,11.074,11.074,0,0,1-.414-3.348,9.207,9.207,0,0,1,.823-3.66,2.428,2.428,0,0,1,.095-1.253,2.468,2.468,0,0,1-.794-.084,6.308,6.308,0,0,1-2.17-.309,3.6,3.6,0,0,1-2.658-4.227,2.7,2.7,0,0,1,1.211-1.693,2.7,2.7,0,0,1,2.054-.339,2.069,2.069,0,0,1,1.3.928,2.07,2.07,0,0,1,.261,1.574,1.577,1.577,0,0,1-1.892,1.178,1.049,1.049,0,0,1-.113-.033,1.208,1.208,0,0,0,.134-.045,1.334,1.334,0,0,0,.749-1.731,1.333,1.333,0,0,0-1.732-.748,1.333,1.333,0,0,0-.837,1.138,2.085,2.085,0,0,0,1.592,2.308,2.491,2.491,0,0,0,2.987-1.86,2.975,2.975,0,0,0-.375-2.263,2.971,2.971,0,0,0-1.865-1.334,3.6,3.6,0,0,0-2.742.454,3.6,3.6,0,0,0-1.617,2.26,4.551,4.551,0,0,0,3.275,5.305,9.523,9.523,0,0,0,2.454.353l-.116.184a9.815,9.815,0,0,0-.811,5.765c-.192-.407-.371-.823-.552-1.247a24.535,24.535,0,0,0-1.162-2.457,7.01,7.01,0,0,0-4.118-3.514,4.364,4.364,0,0,0-3.4.42,3.4,3.4,0,0,0-1.844,3.042,3.42,3.42,0,0,0,3.416,3.416,3.181,3.181,0,0,0,1.16-.2,1.072,1.072,0,0,1-.638-.76,2.093,2.093,0,0,1-.522.052,2.507,2.507,0,0,1-2.5-2.5,2.493,2.493,0,0,1,1.358-2.235l.023-.013a3.47,3.47,0,0,1,2.717-.333,6.2,6.2,0,0,1,3.561,3.08,23.542,23.542,0,0,1,1.117,2.368,17.387,17.387,0,0,0,1.428,2.845Z" transform="translate(-141.982 -75.437)"/><path class="a" d="M-520.435,668.665a5.054,5.054,0,0,1-6.353-.115,6.063,6.063,0,0,1-.806-.866.879.879,0,0,1-.821.457,7.669,7.669,0,0,0,1.023,1.093,5.926,5.926,0,0,0,3.907,1.419,5.494,5.494,0,0,0,3.656-1.306,3.436,3.436,0,0,0,.546-.568,3.992,3.992,0,0,0-.857-.4c-.068.071-.221.222-.3.288" transform="translate(-175.111 -122.901)"/><path class="a" d="M-513.1,651.252a4.759,4.759,0,0,0,.4-1.9,4.637,4.637,0,0,0-1.29-3.375,4.1,4.1,0,0,0-5.745.036,3.327,3.327,0,0,0-.873,3.154l.072.188a1.486,1.486,0,0,1,.734-.875,2.293,2.293,0,0,1,.714-1.824,3.19,3.19,0,0,1,4.473-.014,3.759,3.759,0,0,1,1,2.7,3.73,3.73,0,0,1-.317,1.509,6,6,0,0,1,.828.4" transform="translate(-180.686 -106.371)"/><path class="a" d="M-543.245,553.067a5.9,5.9,0,0,0,1.779,1.566,5.9,5.9,0,0,1-.643-7.5,4.352,4.352,0,0,1,1.4-1.29,2.963,2.963,0,0,1,.918-.342,2.609,2.609,0,0,1,1.073-.007,2.226,2.226,0,0,1,1.641,1.1,2.888,2.888,0,0,1,.2.425,2.759,2.759,0,0,1-.193,2.019,2.272,2.272,0,0,1-2.962.71c-.081-.037-.214-.087-.329-.139a1.521,1.521,0,0,0-1.1-.183.817.817,0,0,0-.567.531.705.705,0,0,0,.828.872c.609-.179.371-.9-.128-.678.208-.371.613-.116.961.316a3.648,3.648,0,0,0,.975.825c.976.621,2.348.312,2.358-.986,1.746.386,2.189-2.647.549-4.433a3.6,3.6,0,0,0-2.029-1.2,3.5,3.5,0,0,0-2.194.214,4.865,4.865,0,0,0-2.164,1.744,6.665,6.665,0,0,0-.518.956,6.533,6.533,0,0,1,.206-.663,6.5,6.5,0,0,1,3.1-3.225,19.967,19.967,0,0,0,1.646-1.138c1.738-1.375,2.163-3.232,1.082-4.736a2.592,2.592,0,0,0-2.091-1.076,2.569,2.569,0,0,0-2.428,1.736,1.142,1.142,0,0,0-.04.161,1.321,1.321,0,0,0-.075.436,1.334,1.334,0,0,0,1.334,1.333,1.333,1.333,0,0,0,1.333-1.333,1.333,1.333,0,0,0-.837-1.238,1.626,1.626,0,0,1,.712-.166,1.66,1.66,0,0,1,1.337.69c.928,1.292.14,2.635-.905,3.462-.515.407-1.052.752-1.571,1.085a7.322,7.322,0,0,0-3.468,3.681,6.876,6.876,0,0,0,.809,6.462" transform="translate(-163.47 -28.24)"/><path class="a" d="M-578.005,593.654a1.088,1.088,0,0,1,.766,1.255,1,1,0,0,1-.515.738,3.023,3.023,0,0,1,.974.354,1.933,1.933,0,0,0,.44-.935,1.425,1.425,0,0,0-1.29-1.71,1.583,1.583,0,0,0-1.077.394,1.04,1.04,0,0,1,.7-.1" transform="translate(-138.75 -69.161)"/><path class="a" d="M-523.17,636.584a1.591,1.591,0,0,1,1.8,1.118,1.7,1.7,0,0,0-1.737-1.784,2.028,2.028,0,0,0-2.077,2.044,2.144,2.144,0,0,0,1.678,2.079,2.566,2.566,0,0,1,.538-.66,1.5,1.5,0,0,1-1.417-1.419,1.384,1.384,0,0,1,1.213-1.377" transform="translate(-177.449 -99.934)"/><path class="a" d="M-533.524,659.9c.086-.43-.149-.784-.213-1.191a1.647,1.647,0,0,1,.284-1.383,3.116,3.116,0,0,0-.5.307,1.7,1.7,0,0,0-.483.63,1.628,1.628,0,0,0-.188.888,1.67,1.67,0,0,0-1.959-.26,1.431,1.431,0,0,1,.9.323,2.1,2.1,0,0,1,.254.244,7.687,7.687,0,0,1,.426.654,1.061,1.061,0,0,0,.532.386.8.8,0,0,0,.951-.6" transform="translate(-169.203 -115.411)"/><path class="a" d="M-431.147,557.44a3.935,3.935,0,0,1,2.421.27,15.622,15.622,0,0,0-3.5-1.672,22.312,22.312,0,0,1-3.2-1.4.922.922,0,0,1-.362.815,22.1,22.1,0,0,0,3.238,1.435c.5.192.939.352,1.4.549" transform="translate(-242.081 -41.169)"/><path class="a" d="M-368.667,602.047a3.9,3.9,0,0,0-4.371.763.586.586,0,0,1,.477.145.674.674,0,0,1,.191.46,2.921,2.921,0,0,1,3.324-.539,3.02,3.02,0,0,1,1.66,3.168,3.919,3.919,0,0,1-3.355,3.285l-.031.007a5.632,5.632,0,0,1-2.306.1,2.83,2.83,0,0,1,1.091.979,7.172,7.172,0,0,0,1.433-.193,4.823,4.823,0,0,0,4.079-4.115,3.935,3.935,0,0,0-2.191-4.061" transform="translate(-287.42 -75.186)"/><path class="a" d="M-463.664,513.375c.61,2.216,2.693,3.882,5.006,5.22l.121.066a1.8,1.8,0,0,1,.846-.054,2.481,2.481,0,0,1-.123-.855,1.908,1.908,0,0,1-.245-.2c-2.082-1.639-2.959-3.15-3.1-5.152a2.891,2.891,0,0,1,.745-2.15,2.139,2.139,0,0,1,1.587-.718,2.214,2.214,0,0,1,1.647.807,1.5,1.5,0,0,1,1.1.08,3.147,3.147,0,0,0-2.749-1.8,3.064,3.064,0,0,0-2.256,1.009,3.826,3.826,0,0,0-.986,2.838,6.954,6.954,0,0,0,1.064,3.343,5,5,0,0,1-1.912-4.075,4.762,4.762,0,0,1,1.407-3.2,4.2,4.2,0,0,1,3.234-1.055c.09,0,.208.017.334.036a5.179,5.179,0,0,1,2.933,1.8,4.86,4.86,0,0,1,.875,2.2c.107.605-.065,1.381.635,1.784.539.31,1.382-.052,1.227-.73a.531.531,0,0,0-.783-.349.4.4,0,0,0-.1.6c-.558-.235-.36-.785-.126-1.192a2.882,2.882,0,0,0,.6-1.6,1.422,1.422,0,0,0-.829-1.191,2.682,2.682,0,0,0-.838-.251c.474-.4.255-.88-.163-1.221a3.054,3.054,0,0,0-1.089-.522,6.1,6.1,0,0,0-1.928-.185,4.643,4.643,0,0,0-.692-.093,5.074,5.074,0,0,0-3.909,1.3,4.99,4.99,0,0,0-.97,1.251,6.441,6.441,0,0,1,.936-2.914,2.509,2.509,0,0,1-.6-.715c-1.429,1.718-1.663,5.717-.9,7.883Z" transform="translate(-221.613 -5.637)"/><path class="a" d="M-386.452,609.461c.346-.307,1.009-.1,1.4-.03a1.521,1.521,0,0,0,1.263-.332,1.467,1.467,0,0,0,.2-.264l.074-.169-.134.092a.9.9,0,0,1-1.219-.495c-.263-.185-.837.024-1.061.2a1.618,1.618,0,0,0-.522,1" transform="translate(-277.752 -79.888)"/><path class="a" d="M-374.358,611.429a1.441,1.441,0,0,0-.15.291,1.333,1.333,0,0,0,.3,1.21c.258.292.763.748.645,1.182a1.651,1.651,0,0,0,.675-.913c.054-.269-.029-.847-.324-.978a.889.889,0,0,1-1.042-.777l.023-.157Z" transform="translate(-286.352 -82.126)"/><path class="a" d="M-379.687,611.714a1.282,1.282,0,0,1,0-.484,1,1,0,0,1-.556.429,1.177,1.177,0,0,0-.807,1.211c.066.619.1.848.1.862.015,0,.241-.091.845-.331a1.159,1.159,0,0,0,.734-1.251.922.922,0,0,1,.132-.668,1.419,1.419,0,0,1-.448.232" transform="translate(-281.653 -82.085)"/><path class="a" d="M-372.832,610.591c-.193.5.389.807.829.794.285-.006.57-.1.853-.118.217-.009.5.091.537.33a1.041,1.041,0,0,0-.463-1.08,1.2,1.2,0,0,0-.522-.174c-.2-.012-.436.089-.613-.021,0,0-.159.348.1.527a.773.773,0,0,1-.72-.26" transform="translate(-287.571 -81.429)"/><path class="a" d="M-381.431,604.486c-.185-.094-.206-.342-.311-.5a1.122,1.122,0,0,0-.412-.35,1.164,1.164,0,0,0-1.22.13.5.5,0,0,1,.563.29c.123.242.169.527.3.765.2.373.765.71,1.132.312a.731.731,0,0,1-.584-.476c.289.131.535-.169.535-.169" transform="translate(-279.976 -76.508)"/><path class="a" d="M-439.948,528.366a1.063,1.063,0,0,1-.624-.646,1.416,1.416,0,0,1-.651.488,1.148,1.148,0,0,1-.479-.685,1.067,1.067,0,0,1-.813.457,2.186,2.186,0,0,0,.221,1.3,3.093,3.093,0,0,1,.146,1.146,2.839,2.839,0,0,0,2.2-2.057" transform="translate(-237.187 -21.564)"/><path class="a" d="M-394.273,567.712h0a2.969,2.969,0,0,1,2.966,2.965,3.038,3.038,0,0,1-.812,2.058,1.493,1.493,0,0,1,.505.767,3.9,3.9,0,0,0,1.219-2.825,3.884,3.884,0,0,0-3.879-3.877,3.5,3.5,0,0,0-3.475,1.914,7.48,7.48,0,0,1,.282,1.574,2.954,2.954,0,0,1,3.193-2.576" transform="translate(-269.585 -49.961)"/><path class="a" d="M-403.037,609.655a4.364,4.364,0,0,0-3.4-.42,7.01,7.01,0,0,0-4.118,3.514,24.265,24.265,0,0,0-1.161,2.457c-.181.424-.36.84-.552,1.247a9.824,9.824,0,0,0-.811-5.765l-.116-.184a9.524,9.524,0,0,0,2.454-.353,4.551,4.551,0,0,0,3.275-5.305,3.6,3.6,0,0,0-1.617-2.26,3.6,3.6,0,0,0-2.742-.454,2.976,2.976,0,0,0-1.866,1.334,2.98,2.98,0,0,0-.374,2.263,2.491,2.491,0,0,0,2.987,1.86,2.086,2.086,0,0,0,1.592-2.309,1.334,1.334,0,0,0-.837-1.137,1.333,1.333,0,0,0-1.731.748,1.333,1.333,0,0,0,.748,1.731,1.147,1.147,0,0,0,.136.045,1.151,1.151,0,0,1-.113.032,1.577,1.577,0,0,1-1.892-1.178,2.077,2.077,0,0,1,.261-1.574,2.071,2.071,0,0,1,1.3-.928,2.7,2.7,0,0,1,2.054.339,2.7,2.7,0,0,1,1.21,1.693,3.6,3.6,0,0,1-2.658,4.227,6.307,6.307,0,0,1-2.17.309,2.468,2.468,0,0,1-.794.084,2.429,2.429,0,0,1,.095,1.253,9.211,9.211,0,0,1,.823,3.66,11.11,11.11,0,0,1-.414,3.348,1.841,1.841,0,0,1-.145.331,1.647,1.647,0,0,1,.178.652,1.541,1.541,0,0,1,1.008-.33l.128-.177a17.473,17.473,0,0,0,1.428-2.845,23.082,23.082,0,0,1,1.118-2.368,6.2,6.2,0,0,1,3.56-3.08,3.471,3.471,0,0,1,2.717.333l.024.013a2.494,2.494,0,0,1,1.357,2.235,2.507,2.507,0,0,1-2.5,2.5,2.1,2.1,0,0,1-.522-.052,1.072,1.072,0,0,1-.638.76,3.176,3.176,0,0,0,1.16.2,3.422,3.422,0,0,0,3.418-3.416,3.4,3.4,0,0,0-1.844-3.042" transform="translate(-257.726 -75.437)"/><path class="a" d="M-437.856,667.683a5.971,5.971,0,0,1-.806.866,5.054,5.054,0,0,1-6.353.115c-.074-.066-.227-.217-.3-.287a3.974,3.974,0,0,0-.855.4,3.431,3.431,0,0,0,.545.568,5.5,5.5,0,0,0,3.656,1.306,5.924,5.924,0,0,0,3.906-1.419,7.619,7.619,0,0,0,1.024-1.093.881.881,0,0,1-.822-.458" transform="translate(-234.578 -122.901)"/><path class="a" d="M-441.976,649.356l.071-.188a3.327,3.327,0,0,0-.872-3.153,4.1,4.1,0,0,0-5.745-.036,4.641,4.641,0,0,0-1.29,3.375,4.745,4.745,0,0,0,.4,1.9,5.963,5.963,0,0,1,.827-.4,3.774,3.774,0,0,1-.318-1.509,3.76,3.76,0,0,1,1-2.7,3.189,3.189,0,0,1,4.472.013,2.294,2.294,0,0,1,.715,1.824,1.483,1.483,0,0,1,.734.874" transform="translate(-231.941 -106.371)"/><path class="a" d="M-427.883,537.833c-1.08,1.5-.654,3.361,1.082,4.736a20.01,20.01,0,0,0,1.647,1.138,6.5,6.5,0,0,1,3.1,3.225,6.54,6.54,0,0,1,.207.662,6.678,6.678,0,0,0-.518-.956,4.873,4.873,0,0,0-2.164-1.743,3.5,3.5,0,0,0-2.194-.214,3.6,3.6,0,0,0-2.028,1.2c-1.64,1.786-1.2,4.82.548,4.433.011,1.3,1.382,1.607,2.358.986a3.649,3.649,0,0,0,.976-.825c.348-.431.752-.686.961-.316-.5-.22-.738.5-.128.679a.706.706,0,0,0,.828-.873.817.817,0,0,0-.568-.531,1.518,1.518,0,0,0-1.1.183c-.115.052-.248.1-.329.139a2.271,2.271,0,0,1-2.962-.71,2.755,2.755,0,0,1-.192-2.019,2.949,2.949,0,0,1,.2-.425,2.226,2.226,0,0,1,1.641-1.1,2.607,2.607,0,0,1,1.074.007,2.956,2.956,0,0,1,.918.342,4.343,4.343,0,0,1,1.4,1.29,5.905,5.905,0,0,1-.642,7.5,5.914,5.914,0,0,0,1.779-1.566,6.877,6.877,0,0,0,.809-6.462,7.326,7.326,0,0,0-3.467-3.681,18.966,18.966,0,0,1-1.572-1.086c-1.046-.827-1.833-2.171-.905-3.462a1.663,1.663,0,0,1,1.338-.69,1.618,1.618,0,0,1,.711.166,1.333,1.333,0,0,0-.837,1.237,1.334,1.334,0,0,0,1.334,1.334,1.333,1.333,0,0,0,1.333-1.334,1.347,1.347,0,0,0-.073-.433,1.1,1.1,0,0,0-.042-.164,2.568,2.568,0,0,0-2.427-1.736,2.6,2.6,0,0,0-2.092,1.076" transform="translate(-246.428 -28.24)"/><path class="a" d="M-371.521,595.066a1.921,1.921,0,0,0,.44.935,3.016,3.016,0,0,1,.974-.354,1,1,0,0,1-.514-.738,1.086,1.086,0,0,1,.766-1.255,1.04,1.04,0,0,1,.7.1,1.581,1.581,0,0,0-1.077-.394,1.425,1.425,0,0,0-1.291,1.71" transform="translate(-288.529 -69.161)"/><path class="a" d="M-426.386,637.962a2.029,2.029,0,0,0-2.078-2.044A1.7,1.7,0,0,0-430.2,637.7a1.59,1.59,0,0,1,1.8-1.118,1.384,1.384,0,0,1,1.213,1.377,1.5,1.5,0,0,1-1.417,1.419,2.584,2.584,0,0,1,.538.66,2.144,2.144,0,0,0,1.678-2.079" transform="translate(-246.121 -99.934)"/><path class="a" d="M-491.011,667.265a1.719,1.719,0,0,1,1.063,1.128,4.2,4.2,0,0,0,.942.042,2.694,2.694,0,0,0-1.654-2.012,3.379,3.379,0,0,0-3.282.3c-.367.2-.72.425-1.063.641a9.653,9.653,0,0,1-2.066,1.086,2.192,2.192,0,0,1-2.382-.5,2,2,0,0,1-.406-1.011c0-.008,0-.017,0-.026l0-.1V666.8h0a.817.817,0,0,1-.414.143h-.063a.812.812,0,0,1-.414-.143h0v.016l0,.1c0,.008,0,.015,0,.023a2,2,0,0,1-.406,1.014,2.191,2.191,0,0,1-2.382.5,9.625,9.625,0,0,1-2.065-1.086c-.343-.216-.7-.439-1.063-.641a3.378,3.378,0,0,0-3.281-.3,2.7,2.7,0,0,0-1.655,2.012,4.2,4.2,0,0,0,.942-.042,1.718,1.718,0,0,1,1.063-1.128,2.48,2.48,0,0,1,2.491.255c.342.188.685.4,1.016.613a10.418,10.418,0,0,0,2.264,1.179,3.5,3.5,0,0,0,1.934.1,2.678,2.678,0,0,0,1.44-.883c.052-.064.1-.134.151-.207.049.073.1.143.152.207a2.673,2.673,0,0,0,1.439.883,3.506,3.506,0,0,0,1.934-.1,10.433,10.433,0,0,0,2.264-1.179c.331-.209.674-.425,1.016-.613a2.48,2.48,0,0,1,2.492-.255" transform="translate(-187.261 -121.774)"/><path class="a" d="M-415.166,659.149a1.633,1.633,0,0,0-.188-.888,1.71,1.71,0,0,0-.483-.63,3.1,3.1,0,0,0-.5-.307,1.647,1.647,0,0,1,.284,1.383c-.063.407-.3.761-.213,1.191a.8.8,0,0,0,.952.6,1.065,1.065,0,0,0,.531-.386,7.61,7.61,0,0,1,.426-.655,2.152,2.152,0,0,1,.254-.243,1.43,1.43,0,0,1,.9-.323,1.669,1.669,0,0,0-1.958.26" transform="translate(-256.141 -115.411)"/><path class="a" d="M-675.7,857.613a4,4,0,0,0,1.3.187c.345,0,.669-.136.669-.481,0-.215-.238-.362-.736-.482-.855-.2-1.263-.6-1.263-1.212,0-.7.583-1.048,1.28-1.048a3.037,3.037,0,0,1,1.3.227c0,.017-.125.595-.13.606a3.221,3.221,0,0,0-1.139-.187c-.3,0-.566.125-.566.419,0,.249.238.424.759.561.821.209,1.206.561,1.206,1.121,0,.737-.606,1.11-1.342,1.11a4.19,4.19,0,0,1-1.478-.215c.006-.011.136-.595.141-.606" transform="translate(-68.52 -258.026)"/><path class="a" d="M-661.063,854.843h.674v1.513h1.79v-1.513h.674v3.71h-.674v-1.58h-1.79v1.58h-.674Z" transform="translate(-79.206 -258.219)"/><path class="a" d="M-644.244,854.843h.725l1.506,3.71h-.714l-.306-.8h-1.705l-.305.8h-.708Zm-.255,2.288h1.229l-.612-1.6Z" transform="translate(-90.276 -258.219)"/><path class="a" d="M-626.406,857.766l.968-2.923h.731l-1.331,3.71h-.708l-.883-2.94-.935,2.94h-.708l-1.331-3.71h.731l.986,2.928.94-2.928h.651Z" transform="translate(-101.229 -258.219)"/><path class="a" d="M-605.253,854.843h.674v3.093h1.716v.618h-2.391Z" transform="translate(-119.557 -258.219)"/><path class="a" d="M-593.173,857.613a4,4,0,0,0,1.3.187c.346,0,.668-.136.668-.481,0-.215-.238-.362-.736-.482-.855-.2-1.263-.6-1.263-1.212,0-.7.584-1.048,1.281-1.048a3.037,3.037,0,0,1,1.3.227c0,.017-.125.595-.131.606a3.221,3.221,0,0,0-1.138-.187c-.3,0-.566.125-.566.419,0,.249.237.424.759.561.821.209,1.206.561,1.206,1.121,0,.737-.606,1.11-1.342,1.11a4.192,4.192,0,0,1-1.479-.215c.006-.011.136-.595.142-.606" transform="translate(-128.188 -258.026)"/><rect class="a" width="0.663" height="5.421" transform="translate(-715.67 596.33)"/><path class="a" d="M-558.93,857.613a4,4,0,0,0,1.3.187c.346,0,.669-.136.669-.481,0-.215-.238-.362-.736-.482-.855-.2-1.263-.6-1.263-1.212,0-.7.583-1.048,1.28-1.048a3.037,3.037,0,0,1,1.3.227c0,.017-.125.595-.13.606a3.222,3.222,0,0,0-1.138-.187c-.3,0-.567.125-.567.419,0,.249.238.424.759.561.821.209,1.206.561,1.206,1.121,0,.737-.606,1.11-1.342,1.11a4.188,4.188,0,0,1-1.478-.215c.005-.011.136-.595.141-.606" transform="translate(-152.946 -258.026)"/><path class="a" d="M-545.58,854.843h3.1v.617h-1.212v3.093h-.674v-3.093h-1.218Z" transform="translate(-162.701 -258.219)"/><path class="a" d="M-531.289,856.508a1.774,1.774,0,0,1,1.807-1.932,1.778,1.778,0,0,1,1.812,1.932,1.774,1.774,0,0,1-1.812,1.926,1.775,1.775,0,0,1-1.807-1.926m2.923,0a1.141,1.141,0,0,0-1.115-1.292,1.14,1.14,0,0,0-1.111,1.292,1.138,1.138,0,0,0,1.111,1.286,1.139,1.139,0,0,0,1.115-1.286" transform="translate(-173.033 -258.026)"/><path class="a" d="M-513.524,854.843h.674v3.093h1.716v.618h-2.39Z" transform="translate(-185.877 -258.219)"/><path class="a" d="M-500.666,854.843h2.6v.617h-1.926v.912h1.813v.617h-1.812v.946h1.943v.618h-2.617Z" transform="translate(-195.174 -258.219)"/><path class="a" d="M-487.113,857.613a4,4,0,0,0,1.3.187c.345,0,.668-.136.668-.481,0-.215-.238-.362-.736-.482-.855-.2-1.263-.6-1.263-1.212,0-.7.584-1.048,1.28-1.048a3.035,3.035,0,0,1,1.3.227c0,.017-.124.595-.13.606a3.224,3.224,0,0,0-1.139-.187c-.3,0-.566.125-.566.419,0,.249.238.424.759.561.822.209,1.206.561,1.206,1.121,0,.737-.606,1.11-1.343,1.11a4.189,4.189,0,0,1-1.478-.215c.005-.011.136-.595.141-.606" transform="translate(-204.87 -258.026)"/><rect class="a" width="0.663" height="5.421" transform="translate(-686.293 596.33)"/><path class="a" d="M-452.872,857.613a4,4,0,0,0,1.3.187c.345,0,.668-.136.668-.481,0-.215-.238-.362-.736-.482-.855-.2-1.263-.6-1.263-1.212,0-.7.583-1.048,1.28-1.048a3.037,3.037,0,0,1,1.3.227c0,.017-.125.595-.13.606a3.221,3.221,0,0,0-1.138-.187c-.3,0-.566.125-.566.419,0,.249.238.424.759.561.821.209,1.206.561,1.206,1.121,0,.737-.606,1.11-1.342,1.11a4.189,4.189,0,0,1-1.478-.215c.005-.011.136-.595.141-.606" transform="translate(-229.627 -258.026)"/><path class="a" d="M-435.967,858.219a2.932,2.932,0,0,1-1.167.215,1.771,1.771,0,0,1-1.836-1.926,1.746,1.746,0,0,1,1.773-1.932,3.09,3.09,0,0,1,1.241.221l-.13.6a2.992,2.992,0,0,0-1.076-.181c-.731,0-1.11.572-1.11,1.292a1.15,1.15,0,0,0,1.161,1.286,2.18,2.18,0,0,0,1.008-.193Z" transform="translate(-239.781 -258.026)"/><path class="a" d="M-423.623,854.843h.725l1.506,3.71h-.713l-.306-.8h-1.705l-.305.8h-.709Zm-.255,2.288h1.229l-.612-1.6Z" transform="translate(-249.787 -258.219)"/><path class="a" d="M-407.629,858.554v-3.71h1.722a1.128,1.128,0,0,1,1.207,1.2,1.279,1.279,0,0,1-.583,1.161,1.509,1.509,0,0,1,.283.448l.391.9h-.725l-.295-.7c-.09-.226-.232-.447-.458-.487h-.867v1.19Zm.674-3.093v1.28h.935a.6.6,0,0,0,.624-.663.569.569,0,0,0-.618-.617Z" transform="translate(-262.44 -258.219)"/><path class="a" d="M-393.217,854.843l1.116,2.951,1.11-2.951h.73l-1.489,3.71h-.714l-1.49-3.71Z" transform="translate(-272.328 -258.219)"/><path class="a" d="M-376.637,854.843h2.6v.617h-1.926v.912h1.812v.617h-1.812v.946h1.943v.618h-2.617Z" transform="translate(-284.848 -258.219)"/><path class="a" d="M-363.085,857.613a4,4,0,0,0,1.3.187c.346,0,.668-.136.668-.481,0-.215-.238-.362-.736-.482-.855-.2-1.263-.6-1.263-1.212,0-.7.584-1.048,1.281-1.048a3.037,3.037,0,0,1,1.3.227c0,.017-.125.595-.13.606a3.222,3.222,0,0,0-1.138-.187c-.3,0-.566.125-.566.419,0,.249.238.424.759.561.821.209,1.206.561,1.206,1.121,0,.737-.606,1.11-1.342,1.11a4.189,4.189,0,0,1-1.478-.215c.005-.011.136-.595.142-.606" transform="translate(-294.543 -258.026)"/><rect class="a" width="0.663" height="5.421" transform="translate(-651.938 596.33)"/><path class="a" d="M-328.844,857.613a4,4,0,0,0,1.3.187c.345,0,.668-.136.668-.481,0-.215-.238-.362-.737-.482-.855-.2-1.263-.6-1.263-1.212,0-.7.583-1.048,1.28-1.048a3.037,3.037,0,0,1,1.3.227c0,.017-.125.595-.13.606a3.222,3.222,0,0,0-1.138-.187c-.3,0-.567.125-.567.419,0,.249.238.424.759.561.821.209,1.206.561,1.206,1.121,0,.737-.606,1.11-1.342,1.11a4.188,4.188,0,0,1-1.478-.215c.006-.011.136-.595.141-.606" transform="translate(-319.301 -258.026)"/><path class="a" d="M-314.393,854.843h.725l1.507,3.71h-.714l-.306-.8h-1.705l-.306.8h-.708Zm-.255,2.288h1.229l-.612-1.6Z" transform="translate(-328.761 -258.219)"/><path class="a" d="M-298.4,858.554v-3.71h1.722a1.128,1.128,0,0,1,1.207,1.2,1.279,1.279,0,0,1-.583,1.161,1.5,1.5,0,0,1,.283.448l.391.9h-.725l-.295-.7c-.091-.226-.232-.447-.459-.487h-.867v1.19Zm.674-3.093v1.28h.935a.6.6,0,0,0,.623-.663.569.569,0,0,0-.617-.617Z" transform="translate(-341.412 -258.219)"/><rect class="a" width="0.674" height="3.71" transform="translate(-635.522 596.624)"/><path class="a" d="M-275.814,857.613a4,4,0,0,0,1.3.187c.345,0,.668-.136.668-.481,0-.215-.238-.362-.737-.482-.855-.2-1.263-.6-1.263-1.212,0-.7.583-1.048,1.28-1.048a3.037,3.037,0,0,1,1.3.227c0,.017-.125.595-.13.606a3.222,3.222,0,0,0-1.138-.187c-.3,0-.566.125-.566.419,0,.249.238.424.759.561.821.209,1.206.561,1.206,1.121,0,.737-.606,1.11-1.342,1.11a4.19,4.19,0,0,1-1.478-.215c.006-.011.136-.595.141-.606" transform="translate(-357.642 -258.026)"/></g></svg>