<svg xmlns="http://www.w3.org/2000/svg" width="23.446" height="23.45" viewBox="0 0 23.446 23.45"><defs><style>.a{fill:#501337;}</style></defs><path class="a" d="M261.414,369.277a9.869,9.869,0,0,1-13.4-14.464,9.826,9.826,0,0,1,13.223-.762,9.933,9.933,0,0,1,1.337,14.083,1.987,1.987,0,0,1,.415.253q2.55,2.534,5.087,5.082a4.16,4.16,0,0,1,.314.332.9.9,0,0,1-1.287,1.26,4.57,4.57,0,0,1-.331-.316q-2.527-2.525-5.051-5.053A3.492,3.492,0,0,1,261.414,369.277Zm1.674-7.551a8.043,8.043,0,1,0-8.026,8.045A8.068,8.068,0,0,0,263.088,361.726Z" transform="translate(-245.174 -351.855)"/></svg>