<?xml version="1.0" encoding="utf-8"?>
<!-- Generator: Adobe Illustrator 15.0.0, SVG Export Plug-In . SVG Version: 6.00 Build 0)  -->
<!DOCTYPE svg PUBLIC "-//W3C//DTD SVG 1.1//EN" "http://www.w3.org/Graphics/SVG/1.1/DTD/svg11.dtd">
<svg version="1.1" id="Capa_1" xmlns="http://www.w3.org/2000/svg" xmlns:xlink="http://www.w3.org/1999/xlink" x="0px" y="0px"
	 width="1443px" height="1324px" viewBox="0 0 1443 1324" enable-background="new 0 0 1443 1324" xml:space="preserve">
<g>
	<g>
		<path fill="#2D2D2D" d="M545.915,1057.907c29.738,0,54.046-24.309,54.046-54.046V54.305c0-20.688-11.637-39.565-29.738-48.616
			c-18.101-9.051-40.341-7.241-56.632,5.431L161.127,275.402c-24.308,18.102-28.704,51.202-10.861,75.51
			c18.102,24.308,51.201,28.703,75.509,10.859l266.093-199.633v841.723C492.127,1033.6,516.436,1057.907,545.915,1057.907z"/>
		<path fill="#2D2D2D" d="M896.826,275.402c-29.738,0-54.046,24.308-54.046,54.046v940.765c0,20.688,11.637,38.789,29.737,48.615
			c8.018,3.62,16.292,5.431,24.309,5.431c11.637,0,22.498-3.62,32.324-10.86l352.464-259.888
			c24.308-18.102,28.704-51.2,11.637-75.51c-18.103-24.308-51.202-28.703-75.51-11.637l-267.128,197.049V329.448
			C950.614,299.71,926.564,275.402,896.826,275.402z"/>
	</g>
</g>
</svg>
